<svg xmlns="http://www.w3.org/2000/svg" viewBox="0 0 302.72 115.01" fill="#eeeae6">
<title>Spencer-williams-logo-2</title>
<g id="Layer_2" data-name="Layer 2">
<g id="Layer_1-2" data-name="Layer 1"><path d="M33.41,4.37l-4.25,8.4s-4.59-3.19-9.35-3.19c-3.58,0-5.49,1.62-5.49,4.14s4.37,4.42,9.63,6.66S34.76,26.92,34.76,33c0,11-8.4,14.89-17.41,14.89A27,27,0,0,1,0,41.75l5.26-8.84s6.16,5.21,11.31,5.21c2.29,0,6.66-.22,6.66-4.53,0-3.36-4.93-4.87-10.41-7.61S4,18.92,4,14.1C4,5.48,11.64,0,19.09,0A26.25,26.25,0,0,1,33.41,4.37Z"/><path d="M58,47.85a13.06,13.06,0,0,1-9.4-3.58V61.57H38.74V18.3h9.79v3.25h.11A12.72,12.72,0,0,1,58,17.46c8.4,0,14.27,6.77,14.27,15.17S66.45,47.85,58,47.85Zm-3-21.94a6.45,6.45,0,0,0-6.66,6.72,6.69,6.69,0,1,0,13.38,0A6.4,6.4,0,0,0,55.08,25.91Z"/><path d="M84.73,34c0,4.42,3.69,5.93,6.21,5.93,3.19,0,4.59-.62,7-3.19l7.16,3.58c-3.25,5.43-8.51,7.5-14.89,7.5-8.68,0-15.78-6.83-15.78-15.17s7.11-15.22,15.78-15.22,15.39,5.15,15.39,15.22a10.4,10.4,0,0,1-.06,1.34Zm11.19-5.48A5.1,5.1,0,0,0,90.5,23.9c-3.41,0-5.32,2-5.49,4.65Z"/><path d="M109.54,18.3h9.91v3h.11a11.89,11.89,0,0,1,8.23-3.86c5.26,0,12.59,2.63,12.59,10.63V47h-9.91V30.78c0-2.85-2-5.6-5.15-5.6-3,0-5.88,2.74-5.88,5.6V47h-9.91Z"/><path d="M154.37,32.63a7,7,0,0,0,6.83,7.11A8.74,8.74,0,0,0,166,38.4l3.36,6.88s-3.25,2.57-9.63,2.57c-8.28,0-15.9-6.72-15.9-15.11s7.56-15.28,15.9-15.28c6.38,0,9.63,2.69,9.63,2.69L166,26.92a8.74,8.74,0,0,0-4.81-1.34A6.94,6.94,0,0,0,154.37,32.63Z"/><path d="M180.31,34c0,4.42,3.69,5.93,6.21,5.93,3.19,0,4.59-.62,7-3.19l7.16,3.58c-3.25,5.43-8.51,7.5-14.89,7.5C177.12,47.85,170,41,170,32.69s7.11-15.22,15.78-15.22,15.39,5.15,15.39,15.22a10.4,10.4,0,0,1-.06,1.34Zm11.19-5.48a5.1,5.1,0,0,0-5.43-4.65c-3.41,0-5.32,2-5.49,4.65Z"/><path d="M205.12,18.3H215v4.14h.11s3.13-5,8.79-5a11.9,11.9,0,0,1,6.27,1.79l-4.14,8.4a8.36,8.36,0,0,0-5.15-1.57c-5.15,0-5.88,5.09-5.88,5.82V47h-9.91Z"/><path d="M11.59,89.44c-2.69-3.36-4.65-6.6-4.65-10.24,0-7.16,5.15-12,14.72-12,9.23,0,13.71,6.27,13.71,12,0,6.94-9.12,11.36-9.12,11.36l6.16,6.38s2-.9,6.77-5.82l6.49,6.38a60.36,60.36,0,0,1-6.55,6.32l10,10.35H35.82l-4.59-4.76c-4,2.85-7.72,5.6-14.83,5.6C9.57,115,.34,112.27.34,102,.34,96.26,6.16,92.29,11.59,89.44Zm5.48,5.76s-4.81,1.74-4.81,6c0,2.69,2.74,3.86,5.21,3.86a12.18,12.18,0,0,0,6.94-2.63Zm.56-16c0,2.69,3.36,5.65,3.36,5.65,2.35-1.29,5.15-3.19,5.15-5.65s-1.06-4.59-4.48-4.59C18.81,74.6,17.63,76.73,17.63,79.19Z"/><path d="M92,88.26l-7.39,25.91H72.92L59.77,68h11.7l7.89,31.68h.28L88,68H96l8.4,31.68h.28L112.55,68h11.64L111,114.17H99.4Z"/><path d="M136.75,73.6a5.88,5.88,0,1,1-5.88-5.88A5.88,5.88,0,0,1,136.75,73.6Zm-11,40.58h9.91V85.46h-9.91Z"/><path d="M141.52,66h9.91v48.13h-9.91Z"/><path d="M157.09,66H167v48.13h-9.91Z"/><path d="M183.66,73.6a5.88,5.88,0,1,1-5.88-5.88A5.88,5.88,0,0,1,183.66,73.6Zm-11,40.58h9.91V85.46h-9.91Z"/><path d="M200.83,84.62a13.06,13.06,0,0,1,9.4,3.58V85.46h9.91v28.71h-9.79v-3.25h-.11a12.72,12.72,0,0,1-9.4,4.09c-8.4,0-14.27-6.77-14.27-15.17S192.44,84.62,200.83,84.62Zm3,21.94a6.45,6.45,0,0,0,6.66-6.72,6.69,6.69,0,1,0-13.38,0A6.4,6.4,0,0,0,203.8,106.56Z"/><path d="M225.91,85.46h9.91v3h.11a11.89,11.89,0,0,1,8.23-3.86c3.81,0,8,1.4,10,5.26,3-3.64,6.38-5.26,9.51-5.26,5.26,0,11.19,2.63,11.19,10.63v18.92H265V97.94c0-2.85-1.51-5.37-5-5.37A4.41,4.41,0,0,0,255.35,97v17.13h-9.91V97.94c0-2.85-1.51-5.37-5-5.37-3.3,0-4.59,2.52-4.59,4.81v16.79h-9.91Z"/><path d="M302.21,86.86,299,93.35a16.17,16.17,0,0,0-6.38-1.79c-2.18,0-3.08.39-3.08,1.73,0,1.51,2,2,4.48,2.74,3.81,1.18,8.73,3.3,8.73,9.18,0,8.45-7.72,9.79-13.6,9.79A17.18,17.18,0,0,1,278,111.15l4-6.77s3.92,3.3,7.11,3.3c1.4,0,3.08-.17,3.08-2.07,0-2.07-3.13-2.24-6.38-3.92C283,100.18,280,98.17,280,93.86c0-5.88,5-9.23,12.54-9.23A21.92,21.92,0,0,1,302.21,86.86Z"/></g></g></svg>